<?xml version="1.0" standalone="no"?>
<!DOCTYPE svg PUBLIC "-//W3C//DTD SVG 20010904//EN"
 "http://www.w3.org/TR/2001/REC-SVG-20010904/DTD/svg10.dtd">
<svg version="1.0" xmlns="http://www.w3.org/2000/svg"
 width="500.000000pt" height="500.000000pt" viewBox="0 0 500.000000 500.000000"
 preserveAspectRatio="xMidYMid meet">

<g transform="translate(0.000000,500.000000) scale(0.100000,-0.100000)"
fill="#000000" stroke="none">
<path d="M2289 4020 c-57 -57 -81 -75 -85 -65 -4 10 -15 13 -31 10 -25 -4 -25
-4 -7 18 11 12 36 38 57 57 46 43 47 54 5 45 -43 -9 -116 -80 -159 -155 -21
-38 -40 -59 -49 -57 -8 2 -14 9 -12 16 1 7 -2 10 -7 7 -5 -4 -12 -2 -15 3 -8
12 28 75 63 115 l26 29 -33 -6 c-40 -8 -46 -14 -104 -100 -32 -48 -47 -64 -51
-53 -4 9 -11 16 -17 16 -6 0 -8 -6 -4 -12 5 -10 4 -10 -5 -2 -10 9 -8 19 8 45
29 47 28 62 -4 47 -14 -6 -45 -43 -69 -82 -32 -50 -51 -72 -66 -73 -20 -2 -22
2 -18 37 4 41 3 41 -49 3 -24 -18 -35 -39 -49 -89 -17 -65 -17 -65 -48 -58
-42 9 -46 12 -39 32 3 9 -15 -3 -40 -27 -25 -24 -44 -48 -41 -53 4 -5 -4 -12
-15 -15 -21 -5 -21 -7 -5 -24 16 -17 15 -19 -10 -29 -15 -5 -33 -10 -40 -10
-21 0 -58 -47 -60 -74 0 -16 -6 -24 -13 -22 -7 3 -10 -1 -7 -9 3 -7 -3 -16
-13 -19 -10 -4 -36 -34 -58 -68 -22 -34 -48 -74 -58 -90 l-19 -28 199 0 198 0
28 44 c35 55 156 171 233 223 130 88 240 138 382 174 111 28 365 31 477 6 260
-59 471 -189 626 -383 l50 -63 194 2 193 2 -16 28 c-9 15 -34 36 -57 47 -31
15 -35 20 -17 20 31 0 28 16 -16 74 -22 28 -49 68 -61 89 -28 46 -56 66 -83
59 -14 -3 -19 -1 -14 6 4 7 2 12 -3 12 -6 0 -11 13 -11 29 0 31 -39 71 -69 71
-9 0 -33 5 -54 11 -33 9 -36 12 -27 30 6 11 16 17 23 13 7 -4 -4 10 -23 30
-32 33 -42 37 -105 43 -39 3 -87 14 -107 23 -32 15 -39 16 -49 4 -6 -8 -17
-14 -23 -14 -6 0 -4 5 4 11 11 8 3 9 -30 5 -35 -4 -40 -3 -21 4 13 6 60 13
104 15 45 3 83 8 86 10 2 3 -17 14 -42 25 -48 21 -47 22 -200 -7 -15 -3 -34 0
-42 7 -12 10 -18 10 -32 -1 -14 -12 -15 -12 -9 0 7 10 3 12 -15 6 -44 -13 -6
13 52 37 66 27 76 42 33 46 -31 3 -150 -36 -191 -64 -20 -13 -22 -12 -16 3 5
13 2 15 -11 10 -10 -4 -15 -3 -11 3 3 6 -1 10 -9 10 -9 0 -16 4 -16 9 0 11 98
61 119 61 14 0 14 1 1 10 -34 22 -93 11 -150 -27 -30 -21 -57 -41 -58 -46 -2
-4 -8 -5 -13 -1 -5 3 -9 0 -9 -6 0 -7 -7 -5 -16 4 -8 9 -21 13 -27 10 -18 -9
54 58 83 78 l25 17 -39 0 c-42 1 -78 -21 -151 -90 -30 -28 -46 -37 -62 -33
-30 8 -20 30 41 86 l51 47 -38 1 c-35 0 -46 -8 -118 -80z m-492 -272 c-3 -8
-6 -5 -6 6 -1 11 2 17 5 13 3 -3 4 -12 1 -19z m1623 -209 c18 -12 -44 -1 -75
12 -14 7 -7 7 20 3 22 -3 47 -10 55 -15z"/>
<path d="M3000 3965 c0 -17 9 -19 28 -6 11 7 10 10 -3 15 -23 9 -25 8 -25 -9z"/>
<path d="M3090 3885 c0 -2 10 -10 23 -16 20 -11 21 -11 8 4 -13 16 -31 23 -31
12z"/>
<path d="M2330 3680 c-231 -26 -445 -127 -608 -288 -37 -37 -76 -77 -87 -89
l-18 -23 76 0 c46 0 81 5 89 13 8 6 28 25 46 41 l31 29 38 -29 c21 -15 44 -36
51 -46 8 -10 26 -18 43 -18 32 0 35 6 15 29 -7 9 -16 42 -19 73 -6 62 0 71 60
102 61 31 63 27 63 -89 0 -104 0 -105 25 -111 14 -4 28 -4 31 -1 3 2 1 56 -5
118 -5 62 -7 117 -5 121 11 18 34 2 138 -97 77 -73 107 -108 103 -119 -5 -12
0 -16 17 -16 13 0 38 -3 55 -6 30 -6 31 -5 26 22 -4 26 5 37 86 109 134 119
136 120 153 106 11 -9 12 -20 5 -44 -5 -18 -9 -67 -9 -109 0 -77 0 -78 25 -78
25 0 25 1 25 78 0 55 -5 84 -16 101 -25 35 -5 45 47 25 82 -33 89 -40 89 -101
0 -33 -6 -63 -16 -78 -16 -25 -16 -25 20 -25 23 0 39 6 42 14 3 8 22 27 41 42
l35 26 42 -41 c42 -41 42 -41 119 -41 42 0 77 3 77 6 0 16 -95 114 -165 170
-211 170 -498 254 -765 224z m283 -131 l37 -10 -96 -92 c-53 -51 -102 -92
-109 -92 -20 0 -203 180 -193 190 2 2 33 8 68 14 72 11 234 5 293 -10z m-663
-163 c0 -31 -14 -40 -30 -21 -15 18 -6 45 15 45 9 0 15 -9 15 -24z m1014 -9
c-7 -18 -24 -23 -24 -8 0 22 13 42 22 33 5 -5 6 -16 2 -25z"/>
<path d="M1032 3648 c-19 -19 -14 -46 9 -59 30 -15 54 9 45 45 -7 28 -33 35
-54 14z"/>
<path d="M3896 3311 c-3 -5 -5 -97 -5 -205 0 -159 3 -196 14 -196 40 0 40 3
37 210 -3 189 -4 200 -22 200 -10 0 -21 -4 -24 -9z"/>
<path d="M4232 3118 c2 -137 6 -192 15 -195 7 -3 13 10 15 34 3 36 4 38 35 35
l33 -3 -7 78 c-4 46 -12 84 -21 92 -21 21 -32 58 -32 107 0 37 -3 44 -20 44
-20 0 -20 -5 -18 -192z"/>
<path d="M3978 3254 c-16 -5 -18 -21 -18 -147 0 -202 -9 -187 121 -187 l109 0
0 165 0 165 -47 0 c-27 0 -70 2 -98 4 -27 3 -58 2 -67 0z"/>
<path d="M3760 3085 l0 -155 52 0 51 0 -7 147 c-4 80 -9 150 -12 155 -3 4 -23
8 -45 8 l-39 0 0 -155z"/>
<path d="M1150 3188 c-59 -31 -85 -68 -85 -123 0 -48 26 -92 66 -112 19 -10
297 -13 1249 -13 1197 0 1226 1 1257 20 51 30 66 62 64 133 -2 80 -7 96 -38
108 -15 5 -505 9 -1247 9 l-1222 0 -44 -22z"/>
<path d="M721 3091 c-30 -8 -38 -28 -14 -35 10 -3 71 -6 136 -8 91 -2 120 1
127 12 20 33 1 40 -114 39 -61 -1 -122 -4 -135 -8z"/>
<path d="M774 2915 c-15 -39 1 -45 118 -45 112 0 188 12 188 30 0 22 -47 30
-170 30 -107 0 -132 -3 -136 -15z"/>
<path d="M593 2913 c-28 -11 -13 -33 22 -33 28 0 35 4 35 20 0 20 -26 26 -57
13z"/>
<path d="M1152 2847 c-51 -16 -90 -60 -97 -111 -9 -55 8 -92 54 -123 l34 -23
1244 0 c1374 0 1282 -4 1323 63 41 66 14 149 -59 187 -40 20 -51 20 -1253 19
-831 -1 -1224 -4 -1246 -12z"/>
<path d="M3890 2848 c-1 -2 -2 -65 -3 -141 l-2 -137 33 0 32 0 0 140 0 140
-30 0 c-16 0 -30 -1 -30 -2z"/>
<path d="M3772 2803 c10 -38 6 -168 -7 -210 -7 -22 -5 -23 49 -23 l57 0 -6 73
c-3 39 -8 100 -11 135 l-6 62 -43 0 -43 0 10 -37z"/>
<path d="M3979 2818 c-5 -14 -9 -167 -5 -185 7 -26 25 -28 224 -16 l112 6 0
99 0 98 -165 0 c-91 0 -165 -1 -166 -2z m321 -43 l0 -25 -150 0 c-129 0 -152
2 -157 16 -10 28 18 34 165 34 l142 0 0 -25z"/>
<path d="M552 2728 c3 -23 4 -23 195 -25 140 -1 196 2 209 11 40 30 5 36 -202
36 l-205 0 3 -22z"/>
<path d="M727 2582 c-17 -4 -24 -37 -9 -46 18 -11 312 -10 323 1 6 6 19 9 28
6 9 -4 3 5 -14 18 -28 23 -37 24 -170 24 -78 0 -149 -1 -158 -3z"/>
<path d="M545 2570 c-14 -22 17 -40 69 -40 52 0 76 12 76 37 0 16 -135 19
-145 3z"/>
<path d="M1165 2497 c-53 -21 -74 -37 -90 -67 -21 -40 -19 -99 5 -137 41 -67
-49 -63 1305 -63 1345 0 1267 -3 1315 58 31 39 28 121 -6 162 -54 64 22 60
-1298 59 -894 0 -1209 -4 -1231 -12z"/>
<path d="M3774 2388 c0 -57 -3 -118 -7 -135 l-9 -33 54 0 53 0 -3 122 c-2 68
-5 129 -7 136 -3 7 -21 12 -43 12 l-39 0 1 -102z"/>
<path d="M3896 2398 c-3 -50 -6 -113 -6 -140 0 -49 0 -49 30 -46 l31 3 3 132
c3 126 2 132 -18 137 -12 3 -24 6 -27 6 -3 0 -9 -41 -13 -92z"/>
<path d="M3985 2461 c-4 -7 -5 -13 -4 -14 2 -1 74 0 159 3 85 3 128 7 94 8
-33 1 -101 5 -151 8 -65 5 -92 3 -98 -5z"/>
<path d="M3980 2333 l0 -73 149 0 c82 0 156 3 165 6 12 5 16 21 16 73 l0 66
-165 0 -165 0 0 -72z"/>
<path d="M545 2390 c-3 -5 -4 -14 -1 -18 3 -5 91 -12 195 -16 194 -7 231 -2
231 29 0 13 -32 15 -209 15 -129 0 -212 -4 -216 -10z"/>
<path d="M766 2230 c-121 -3 -181 -9 -183 -16 -8 -24 62 -34 237 -34 162 0
178 2 194 19 17 19 17 20 -3 30 -11 6 -30 10 -43 9 -13 -1 -104 -5 -202 -8z"/>
<path d="M1136 2126 c-96 -48 -100 -177 -5 -228 32 -17 91 -18 1251 -18 837 0
1225 3 1245 11 52 19 73 48 73 98 0 60 -26 110 -70 136 -35 20 -46 20 -1245
20 -1171 0 -1211 -1 -1249 -19z"/>
<path d="M3895 1944 c1 -107 5 -198 9 -201 3 -3 12 -3 21 1 14 5 15 29 14 178
-2 95 1 183 5 196 7 19 4 22 -23 22 l-30 0 4 -196z"/>
<path d="M3990 2124 c36 -7 190 -10 190 -2 0 4 -46 7 -102 7 -57 -1 -96 -3
-88 -5z"/>
<path d="M3758 1968 c2 -79 6 -146 10 -149 4 -4 26 -9 50 -12 l42 -5 0 71 c0
40 -3 109 -7 155 l-6 82 -46 0 -46 0 3 -142z"/>
<path d="M4230 1930 c0 -149 2 -179 15 -184 12 -4 15 3 15 30 0 34 1 35 33 32
28 -3 32 0 31 20 0 12 -1 49 -2 82 -2 44 -6 60 -16 60 -17 0 -29 46 -24 92 3
27 -1 33 -24 39 l-28 7 0 -178z"/>
<path d="M558 2053 c-10 -2 -18 -13 -18 -24 0 -18 9 -19 215 -19 l215 0 0 25
0 25 -197 -1 c-109 -1 -206 -3 -215 -6z"/>
<path d="M4331 2044 c0 -11 3 -14 6 -6 3 7 2 16 -1 19 -3 4 -6 -2 -5 -13z"/>
<path d="M3960 1910 c0 -88 3 -122 13 -125 6 -2 58 -6 115 -10 l102 -6 0 131
0 130 -115 0 -115 0 0 -120z"/>
<path d="M835 1901 c-60 -4 -117 -11 -124 -16 -29 -18 51 -33 175 -34 127 -1
152 7 138 43 -7 17 -2 17 -189 7z"/>
<path d="M1120 1820 c0 -10 124 -233 148 -266 9 -12 27 -27 39 -33 14 -6 20
-16 17 -28 -3 -12 12 -35 43 -68 26 -28 65 -72 87 -99 52 -64 105 -97 179
-112 61 -12 61 -12 18 -13 -38 -1 -42 -3 -30 -17 19 -24 65 -44 98 -44 16 0
33 -4 36 -10 3 -5 -1 -10 -10 -10 -26 0 -9 -16 42 -40 40 -19 59 -22 118 -17
42 3 60 2 45 -3 -14 -4 -38 -9 -55 -9 -28 -2 -29 -3 -11 -16 10 -8 57 -26 105
-41 47 -15 113 -35 145 -45 73 -23 139 -24 171 -3 14 9 25 12 25 6 0 -6 -5
-14 -10 -17 -28 -17 14 -25 135 -25 108 0 145 4 184 19 31 12 51 15 54 8 6
-19 103 12 133 44 24 26 29 27 44 14 13 -12 20 -12 42 -1 14 8 50 23 80 34 72
27 178 88 203 116 12 12 25 21 31 19 5 -2 30 14 56 34 25 21 71 58 102 82 31
24 56 47 56 51 0 4 16 22 36 41 47 46 204 255 204 273 0 3 14 28 30 56 34 58
35 60 17 60 -7 0 -26 14 -42 30 l-29 30 -127 0 -128 0 -47 -62 c-185 -243
-397 -387 -678 -461 -121 -32 -357 -30 -476 3 -217 60 -391 161 -545 315 -45
44 -100 108 -123 141 l-43 62 -153 -6 c-98 -3 -165 -1 -185 6 -17 6 -31 7 -31
2z"/>
<path d="M1960 1783 c0 -44 -4 -53 -40 -88 l-40 -39 -83 82 -82 82 -68 0 c-47
0 -67 -4 -67 -12 0 -12 77 -105 130 -158 186 -184 484 -310 730 -310 85 0 226
25 320 56 163 55 363 186 455 300 22 27 52 63 67 79 15 17 28 33 28 38 0 4
-30 7 -68 7 l-68 0 -74 -75 c-41 -41 -79 -75 -84 -75 -5 0 -24 11 -42 25 -27
21 -35 35 -40 75 -4 29 -12 51 -21 54 -18 7 -33 -1 -33 -17 0 -9 -42 -13 -150
-15 -129 -2 -150 0 -150 13 0 28 -43 16 -92 -26 l-49 -41 -44 41 c-35 32 -52
41 -81 41 -31 0 -35 -2 -24 -15 11 -13 0 -15 -90 -15 -87 0 -101 2 -96 15 8
22 -23 19 -59 -5 l-30 -20 -5 23 c-4 13 -15 23 -28 25 -20 3 -22 -1 -22 -45z
m440 -81 c0 -4 -46 -50 -102 -104 l-101 -97 -29 15 c-24 12 -27 18 -18 34 5
10 10 57 10 104 l0 85 93 3 c75 2 97 0 120 -15 15 -10 27 -21 27 -25z m-286
-23 c3 -34 6 -80 6 -102 0 -38 -1 -39 -27 -32 -16 3 -41 14 -58 24 -28 16 -30
21 -30 77 1 85 6 94 58 94 l44 0 7 -61z m620 39 c3 -13 6 -42 6 -65 0 -23 4
-45 10 -48 11 -7 19 22 22 85 3 45 3 45 43 48 22 1 46 -2 53 -7 15 -9 34 -131
23 -143 -3 -4 -49 -27 -102 -51 l-95 -45 -104 104 c-103 102 -104 103 -85 123
16 19 30 21 120 21 98 0 103 -1 109 -22z m-784 -73 c0 -17 -4 -23 -15 -19 -11
5 -12 10 -2 25 15 25 17 24 17 -6z m1018 13 c18 -18 15 -28 -8 -28 -13 0 -20
7 -20 20 0 23 10 26 28 8z m-398 -116 c65 -62 62 -67 -50 -78 -74 -7 -234 6
-248 21 -4 4 33 45 82 92 l89 85 36 -34 c20 -19 61 -58 91 -86z"/>
<path d="M1155 1266 c-28 -42 10 -82 46 -50 23 21 24 38 3 58 -21 22 -31 20
-49 -8z"/>
<path d="M3706 1277 c-11 -8 -17 -23 -14 -38 2 -19 9 -24 33 -24 24 0 31 5 33
23 3 22 -13 52 -27 52 -4 0 -15 -6 -25 -13z"/>
</g>
</svg>
